# xmcd
#
# Track frame offsets:
#	150
#	18017
#	35505
#	54235
#
# Disc length: 971 seconds
#
# Revision: 1
# Processed by: cddbd v1.5.1PL0 Copyright (c) Steve Scherf et al.
# Submitted via: CDex 1.50Beta5
#
DISCID=2203c904
DTITLE=パルコ・フォルゴレ - チチをもげ！〜モアもげ！ヴァージョン〜
DYEAR=2003
DGENRE=Pop
TTITLE0=チチをもげ！〜モアもげ！ヴァージョン〜
TTITLE1=無敵フォルゴレ〜イタリア野郎ヴァージョン〜
TTITLE2=チチをもげ！〜ハイパーもげ！ミックス〜
TTITLE3=チチをもげ！〜ハイパーもげ！ミックス〜(オリジナル カラオケ)
EXTD=
EXTT0=
EXTT1=
EXTT2=
EXTT3=
PLAYORDER=
